<svg xmlns="http://www.w3.org/2000/svg" width="24" height="24" viewBox="0 0 24 24" fill="none" stroke="#EB4C6B" stroke-width="1.5" stroke-linecap="round" stroke-linejoin="round">
  <path d="M8.67 14H4C2.9 14 2 14.9 2 16V19C2 20.1 2.9 21 4 21H8.67C9.77 21 10.67 20.1 10.67 19V16C10.67 14.9 9.77 14 8.67 14Z"/>
  <path d="M19.33 14H14.66C13.56 14 12.66 14.9 12.66 16V19C12.66 20.1 13.56 21 14.66 21H19.33C20.43 21 21.33 20.1 21.33 19V16C21.33 14.9 20.43 14 19.33 14Z"/>
  <path d="M19.33 3H14.66C13.56 3 12.66 3.9 12.66 5V8C12.66 9.1 13.56 10 14.66 10H19.33C20.43 10 21.33 9.1 21.33 8V5C21.33 3.9 20.43 3 19.33 3Z"/>
  <path d="M8.67 3H4C2.9 3 2 3.9 2 5V8C2 9.1 2.9 10 4 10H8.67C9.77 10 10.67 9.1 10.67 8V5C10.67 3.9 9.77 3 8.67 3Z"/>
</svg> 