<svg width="300" height="399" viewBox="0 0 300 399" fill="none" xmlns="http://www.w3.org/2000/svg">
  <rect width="300" height="399" fill="#F3F3F3"/>
  <path d="M150 139.5C128.07 139.5 110.25 157.32 110.25 179.25C110.25 201.18 128.07 219 150 219C171.93 219 189.75 201.18 189.75 179.25C189.75 157.32 171.93 139.5 150 139.5ZM150 139.5C128.07 139.5 110.25 157.32 110.25 179.25C110.25 201.18 128.07 219 150 219C171.93 219 189.75 201.18 189.75 179.25C189.75 157.32 171.93 139.5 150 139.5Z" fill="#D9D9D9"/>
  <path d="M212.625 289.275C207.188 263.963 181.5 244.5 150 244.5C118.5 244.5 92.8125 263.963 87.375 289.275C103.875 312.075 125.438 326.25 150 326.25C174.562 326.25 196.125 312.075 212.625 289.275Z" fill="#D9D9D9"/>
  <path d="M150 99.75L170.719 135.281L210.75 139.5L176.344 164.531L186.75 204.75L150 184.125L113.25 204.75L123.656 164.531L89.25 139.5L129.281 135.281L150 99.75Z" fill="#D9D9D9"/>
  <text x="150" y="362" fill="#999" font-family="Arial" font-size="16" text-anchor="middle">Product Image Placeholder</text>
</svg> 